HIERARCHY
ROOT reference
{
  OFFSET 0 0 0
  CHANNELS 6 Xposition Yposition Zposition Zrotation Xrotation Yrotation
  JOINT Hips
  {
    OFFSET 352.076 86.5813 226.294
    CHANNELS 3 Zrotation Xrotation Yrotation
    JOINT RightUpLeg
    {
      OFFSET -9.24446 -1.53332 -0.0100408
      CHANNELS 3 Zrotation Xrotation Yrotation
      JOINT RightLeg
      {
        OFFSET 0.0379954 -41.8775 0.0555708
        CHANNELS 3 Zrotation Xrotation Yrotation
        JOINT RightFoot
        {
          OFFSET 0.0737403 -43.7597 -0.208372
          CHANNELS 3 Zrotation Xrotation Yrotation
          End Site
          {
            OFFSET 0 -7.69 17.5
          }
        }
      }
    }
    JOINT LeftUpLeg
    {
      OFFSET 9.31004 -1.65148 -0.0333589
      CHANNELS 3 Zrotation Xrotation Yrotation
      JOINT LeftLeg
      {
        OFFSET 0.0881386 -41.8624 -0.0616493
        CHANNELS 3 Zrotation Xrotation Yrotation
        JOINT LeftFoot
        {
          OFFSET 0.763074 -39.9619 0.249975
          CHANNELS 3 Zrotation Xrotation Yrotation
          End Site
          {
            OFFSET 0 -7.69 17.5
          }
        }
      }
    }
    JOINT Spine
    {
      OFFSET 0.105097 14.2958 0.096313
      CHANNELS 3 Zrotation Xrotation Yrotation
      JOINT Spine1
      {
        OFFSET 0.0609256 9.72986 0.0283835
        CHANNELS 3 Zrotation Xrotation Yrotation
        JOINT Spine2
        {
          OFFSET 0.0349843 10.1145 -0.0203086
          CHANNELS 3 Zrotation Xrotation Yrotation
          JOINT Spine3
          {
            OFFSET 0.0323734 9.71864 0.0196425
            CHANNELS 3 Zrotation Xrotation Yrotation
            JOINT Neck
            {
              OFFSET 0.219168 10.3708 0.0833364
              CHANNELS 3 Zrotation Xrotation Yrotation
              JOINT Head
              {
                OFFSET 0.200748 9.48753 0.0966912
                CHANNELS 3 Zrotation Xrotation Yrotation
                End Site
                {
                  OFFSET 0 15.95 0
                }
              }
            }
            JOINT RightShoulder
            {
              OFFSET -3.14734 6.94135 0.063802
              CHANNELS 3 Zrotation Xrotation Yrotation
              JOINT RightArm
              {
                OFFSET -12.765 0.137663 0.228635
                CHANNELS 3 Zrotation Xrotation Yrotation
                JOINT RightForeArm
                {
                  OFFSET -26.5344 -0.389186 -0.00603507
                  CHANNELS 3 Zrotation Xrotation Yrotation
                  JOINT RightHand
                  {
                    OFFSET -26.1352 -0.0585664 0.0704552
                    CHANNELS 3 Zrotation Xrotation Yrotation
                    JOINT RightHandThumb1
                    {
                      OFFSET -2.48905 0.190105 3.12053
                      CHANNELS 3 Zrotation Xrotation Yrotation
                      JOINT RightHandThumb2
                      {
                        OFFSET -3.68274 0 0
                        CHANNELS 3 Zrotation Xrotation Yrotation
                        JOINT RightHandThumb3
                        {
                          OFFSET -2.55832 0 0
                          CHANNELS 3 Zrotation Xrotation Yrotation
                          End Site
                          {
                            OFFSET -2.194 0 0
                          }
                        }
                      }
                    }
                    JOINT RightInHandIndex
                    {
                      OFFSET -3.22368 0.508421 1.97842
                      CHANNELS 3 Zrotation Xrotation Yrotation
                      JOINT RightHandIndex1
                      {
                        OFFSET -5.21684 -0.091368 0.999158
                        CHANNELS 3 Zrotation Xrotation Yrotation
                        JOINT RightHandIndex2
                        {
                          OFFSET -3.61937 0 0
                          CHANNELS 3 Zrotation Xrotation Yrotation
                          JOINT RightHandIndex3
                          {
                            OFFSET -2.0521 0 0
                            CHANNELS 3 Zrotation Xrotation Yrotation
                            End Site
                            {
                              OFFSET -1.805 0 0
                            }
                          }
                        }
                      }
                    }
                    JOINT RightInHandMiddle
                    {
                      OFFSET -3.38211 0.517263 0.756737
                      CHANNELS 3 Zrotation Xrotation Yrotation
                      JOINT RightHandMiddle1
                      {
                        OFFSET -5.17411 -0.084 0.313895
                        CHANNELS 3 Zrotation Xrotation Yrotation
                        JOINT RightHandMiddle2
                        {
                          OFFSET -3.94947 0 0
                          CHANNELS 3 Zrotation Xrotation Yrotation
                          JOINT RightHandMiddle3
                          {
                            OFFSET -2.47579 0 0
                            CHANNELS 3 Zrotation Xrotation Yrotation
                            End Site
                            {
                              OFFSET -1.975 0 0
                            }
                          }
                        }
                      }
                    }
                    JOINT RightInHandRing
                    {
                      OFFSET -3.36516 0.537895 -0.128947
                      CHANNELS 3 Zrotation Xrotation Yrotation
                      JOINT RightHandRing1
                      {
                        OFFSET -4.63474 -0.022105 -0.478947
                        CHANNELS 3 Zrotation Xrotation Yrotation
                        JOINT RightHandRing2
                        {
                          OFFSET -3.44238 0 0
                          CHANNELS 3 Zrotation Xrotation Yrotation
                          JOINT RightHandRing3
                          {
                            OFFSET -2.3881 0 0
                            CHANNELS 3 Zrotation Xrotation Yrotation
                            End Site
                            {
                              OFFSET -1.857 0 0
                            }
                          }
                        }
                      }
                    }
                    JOINT RightInHandPinky
                    {
                      OFFSET -3.16105 0.469368 -1.20179
                      CHANNELS 3 Zrotation Xrotation Yrotation
                      JOINT RightHandPinky1
                      {
                        OFFSET -4.14105 -0.022105 -1.09053
                        CHANNELS 3 Zrotation Xrotation Yrotation
                        JOINT RightHandPinky2
                        {
                          OFFSET -2.75653 0 0
                          CHANNELS 3 Zrotation Xrotation Yrotation
                          JOINT RightHandPinky3
                          {
                            OFFSET -1.74189 0 0
                            CHANNELS 3 Zrotation Xrotation Yrotation
                            End Site
                            {
                              OFFSET -1.645 0 0
                            }
                          }
                        }
                      }
                    }
                  }
                }
              }
            }
            JOINT LeftShoulder
            {
              OFFSET 3.26179 6.89719 -0.0373062
              CHANNELS 3 Zrotation Xrotation Yrotation
              JOINT LeftArm
              {
                OFFSET 12.4839 0.0196156 -0.0323257
                CHANNELS 3 Zrotation Xrotation Yrotation
                JOINT LeftForeArm
                {
                  OFFSET 26.5039 -0.120667 0.247609
                  CHANNELS 3 Zrotation Xrotation Yrotation
                  JOINT LeftHand
                  {
                    OFFSET 25.9984 -0.032285 0.00286418
                    CHANNELS 3 Zrotation Xrotation Yrotation
                    JOINT LeftHandThumb1
                    {
                      OFFSET 2.48905 0.190105 3.12053
                      CHANNELS 3 Zrotation Xrotation Yrotation
                      JOINT LeftHandThumb2
                      {
                        OFFSET 3.68274 0 0
                        CHANNELS 3 Zrotation Xrotation Yrotation
                        JOINT LeftHandThumb3
                        {
                          OFFSET 2.55832 0 0
                          CHANNELS 3 Zrotation Xrotation Yrotation
                          End Site
                          {
                            OFFSET 2.194 0 0
                          }
                        }
                      }
                    }
                    JOINT LeftInHandIndex
                    {
                      OFFSET 3.22368 0.508421 1.97842
                      CHANNELS 3 Zrotation Xrotation Yrotation
                      JOINT LeftHandIndex1
                      {
                        OFFSET 5.21684 -0.091368 0.999158
                        CHANNELS 3 Zrotation Xrotation Yrotation
                        JOINT LeftHandIndex2
                        {
                          OFFSET 3.61937 0 0
                          CHANNELS 3 Zrotation Xrotation Yrotation
                          JOINT LeftHandIndex3
                          {
                            OFFSET 2.0521 0 0
                            CHANNELS 3 Zrotation Xrotation Yrotation
                            End Site
                            {
                              OFFSET 1.805 0 0
                            }
                          }
                        }
                      }
                    }
                    JOINT LeftInHandMiddle
                    {
                      OFFSET 3.38211 0.517263 0.756737
                      CHANNELS 3 Zrotation Xrotation Yrotation
                      JOINT LeftHandMiddle1
                      {
                        OFFSET 5.17411 -0.084 0.313895
                        CHANNELS 3 Zrotation Xrotation Yrotation
                        JOINT LeftHandMiddle2
                        {
                          OFFSET 3.94947 0 0
                          CHANNELS 3 Zrotation Xrotation Yrotation
                          JOINT LeftHandMiddle3
                          {
                            OFFSET 2.47579 0 0
                            CHANNELS 3 Zrotation Xrotation Yrotation
                            End Site
                            {
                              OFFSET 1.975 0 0
                            }
                          }
                        }
                      }
                    }
                    JOINT LeftInHandRing
                    {
                      OFFSET 3.36516 0.537895 -0.128947
                      CHANNELS 3 Zrotation Xrotation Yrotation
                      JOINT LeftHandRing1
                      {
                        OFFSET 4.63474 -0.022105 -0.478947
                        CHANNELS 3 Zrotation Xrotation Yrotation
                        JOINT LeftHandRing2
                        {
                          OFFSET 3.44238 0 0
                          CHANNELS 3 Zrotation Xrotation Yrotation
                          JOINT LeftHandRing3
                          {
                            OFFSET 2.3881 0 0
                            CHANNELS 3 Zrotation Xrotation Yrotation
                            End Site
                            {
                              OFFSET 1.857 0 0
                            }
                          }
                        }
                      }
                    }
                    JOINT LeftInHandPinky
                    {
                      OFFSET 3.16105 0.469368 -1.20179
                      CHANNELS 3 Zrotation Xrotation Yrotation
                      JOINT LeftHandPinky1
                      {
                        OFFSET 4.14105 -0.022105 -1.09053
                        CHANNELS 3 Zrotation Xrotation Yrotation
                        JOINT LeftHandPinky2
                        {
                          OFFSET 2.75653 0 0
                          CHANNELS 3 Zrotation Xrotation Yrotation
                          JOINT LeftHandPinky3
                          {
                            OFFSET 1.74189 0 0
                            CHANNELS 3 Zrotation Xrotation Yrotation
                            End Site
                            {
                              OFFSET 1.645 0 0
                            }
                          }
                        }
                      }
                    }
                  }
                }
              }
            }
          }
        }
      }
    }
  }
}
MOTION
Frames: 2
Frame Time: 0.00833333
1.050000000000000000e+03 0.000000000000000000e+00 0.000000000000000000e+00 0.000000000000000000e+00 0.000000000000000000e+00 0.000000000000000000e+00 2.192392061433319839e+01 1.386364424897345060e+01 -7.678945580924448677e+01 -2.495905500851064218e+00 -3.754769707566290293e+01 -2.154504583560299835e+00 -3.275840127692022374e+00 1.670199841967416887e+01 -9.802144553164499285e+00 1.648184384794624435e+01 5.902321220254486356e+00 2.067613571129419370e+01 1.471771383267366318e+01 -3.413396587966414586e+01 3.115297201281812534e+00 4.664746367261738413e-01 3.591277574801014083e+01 2.152037878317122122e+00 -1.024661344029143706e+01 -1.721100863468015874e+01 -1.863426346408880363e+01 -3.047613349573800701e+00 2.831046045862121385e+00 4.972454231932140090e+00 -6.987520828917497262e-01 7.788400148154444036e-01 1.356098761377616313e+00 -1.167203637726165422e+00 1.300404584284347242e+00 1.759794181968466376e+00 -1.374282918504358131e-01 -7.041862274039165093e-02 4.914099723513181139e-01 5.975062936826525117e-02 -1.468436677590793771e+00 6.044763269966825447e+00 -2.035576426964264662e+00 5.050543896352896134e+00 4.738368422892893506e+00 2.452416694726554880e+00 -4.563610085841267150e+00 9.095512934793639204e+00 5.726814891158063148e+01 -2.564351333003866529e+01 3.499234322571024336e+01 1.471228849558905694e+01 -7.173618479016442784e+00 8.280587814869279839e+01 1.133050414507695614e+01 -2.263841866451319973e+01 8.035048212055464489e+00 2.818400000000000105e+01 1.072940000000000005e+01 1.915919999999999845e+01 -8.768295077448887937e-15 4.444904219072235812e-15 -1.000000000000000000e+01 -1.430443145297442069e-14 7.124513051443260982e-15 -1.000000000000000000e+01 -2.602007764796438447e-16 -1.157611056416829386e-15 -9.995425212197939311e-16 1.998179999999999978e+01 8.718970000000000331e-01 2.396399999999999864e+00 2.400000000000000000e+01 8.119297993113583095e-15 2.259116935684349531e-14 2.000000000000000000e+01 2.422487212360170218e-16 -1.099548565103368775e-14 -2.602007764796438447e-16 -1.157611056416829386e-15 -9.995425212197939311e-16 2.000000000000000000e+01 7.898859248554713800e-15 9.166453954935097810e-15 2.400000000000000000e+01 -5.178251729961164935e-15 2.823210100309433568e-14 2.000000000000000000e+01 -1.292943060893488931e-14 -1.126143008688263513e-14 -2.602007764796438447e-16 -1.157611056416829386e-15 -9.995425212197939311e-16 1.997479999999999833e+01 -1.025649999999999951e+00 -2.819380000000000219e+00 2.400000000000000000e+01 5.490688986284164847e-15 3.023375626981620322e-14 2.000000000000000000e+01 -1.506329532459163284e-15 -6.488751499446724617e-15 -2.602007764796438447e-16 -1.157611056416829386e-15 -9.995425212197939311e-16 1.978150000000000119e+01 -3.009479999999999933e+00 -8.305149999999999366e+00 2.400000000000000000e+01 7.057543261102844211e-15 2.276509861837808554e-14 2.000000000000000000e+01 5.379368642342030931e-15 -4.577008964564754265e-16 1.137806331393631609e+01 -1.475032302252471261e+01 -3.911005602869582276e+01 -3.449204426682666735e+01 1.905136013193851596e+01 -8.706167344095425165e+01 6.767828074053554133e+00 -2.593706733350991200e+01 -4.937420079918395999e+01 -3.016935074340877421e+01 -6.607940858469978807e+00 -1.344073639881701432e+01 -2.818400000000000105e+01 1.072940000000000005e+01 -1.915919999999999845e+01 -2.998293675031549489e-16 -2.296515730341931041e-15 1.000000000000000000e+01 8.627846542093063931e-15 -3.269948717263095652e-15 1.000000000000000000e+01 2.279114946494246490e-15 1.006088665948057758e-15 -5.951346358886879226e-16 -1.998179999999999978e+01 8.718970000000000331e-01 -2.396399999999999864e+00 -2.400000000000000000e+01 -2.413941317146713273e-16 1.902209997599342083e-14 -2.000000000000000000e+01 -1.628972859162500692e-15 1.112480727676408933e-14 2.279114946494246490e-15 1.006088665948057758e-15 -5.951346358886879226e-16 -2.000000000000000000e+01 -3.139596491154296596e-15 1.614392706954086338e-14 -2.400000000000000000e+01 -3.475885848879569538e-16 1.190441743763986538e-14 -2.000000000000000000e+01 -7.437124603596063460e-16 7.723123525384556391e-15 2.279114946494246490e-15 1.006088665948057758e-15 -5.951346358886879226e-16 -1.997479999999999833e+01 -1.025649999999999951e+00 2.819380000000000219e+00 -2.400000000000000000e+01 -3.719805797767353204e-15 1.418323893675871243e-14 -2.000000000000000000e+01 -3.627351211744045878e-16 9.683773082716707794e-15 2.279114946494246490e-15 1.006088665948057758e-15 -5.951346358886879226e-16 -1.978150000000000119e+01 -3.009479999999999933e+00 8.305149999999999366e+00 -2.400000000000000000e+01 -8.423006620243517607e-16 1.818703778779470562e-14 -2.000000000000000000e+01 -1.798121214021589917e-15 1.335619791481107408e-14
1.050000000000000000e+03 0.000000000000000000e+00 0.000000000000000000e+00 0.000000000000000000e+00 0.000000000000000000e+00 0.000000000000000000e+00 2.189371136782014204e+01 1.394754255726525471e+01 -7.634654513111422602e+01 -2.658170240060048428e+00 -3.736408373491910595e+01 -2.289645194732703004e+00 -3.243010613344624815e+00 1.667786425014073615e+01 -9.903640862925080057e+00 1.649979587994669927e+01 5.807561194474086363e+00 2.047127342636414582e+01 1.444772315804545215e+01 -3.420681656417559680e+01 2.841712009324556476e+00 6.313004864350393319e-01 3.581312495037965959e+01 1.979404000033554212e+00 -1.026606309912034831e+01 -1.711155512443682980e+01 -1.875466830748007041e+01 -3.016088378935733783e+00 2.819351251148874749e+00 5.112185063833022625e+00 -6.917438012774945744e-01 7.789320607082752534e-01 1.393527112177414651e+00 -1.155432961139402748e+00 1.302194715502716704e+00 1.812780712107324277e+00 -1.315423357038496555e-01 -6.928531991896677567e-02 4.721765176795320595e-01 7.253608626084639965e-02 -1.469395069686899147e+00 5.798604031432031292e+00 -1.930135731918294795e+00 5.073888186072234241e+00 4.517784429694739146e+00 2.391433133708350312e+00 -4.644647811949056404e+00 9.195664155772210080e+00 5.719257128006575641e+01 -2.538086001987159079e+01 3.525833194023311989e+01 1.442979341809352789e+01 -7.072367403558813770e+00 8.252731098578027513e+01 1.131401655098873782e+01 -2.259941901045818469e+01 8.188537940603426435e+00 2.818400000000000105e+01 1.072940000000000005e+01 1.915919999999999845e+01 -8.751022422190800359e-15 4.457414882206407562e-15 -1.000000000000000000e+01 -1.427984912875730156e-14 7.135651573892232222e-15 -1.000000000000000000e+01 -2.461599591753734210e-16 -1.162007907495774964e-15 -9.881131366403583765e-16 1.998179999999999978e+01 8.718970000000000331e-01 2.396399999999999864e+00 2.400000000000000000e+01 8.125572052489687264e-15 2.265104208614913780e-14 2.000000000000000000e+01 2.494614901350135861e-16 -1.099084097324337869e-14 -2.461599591753734210e-16 -1.162007907495774964e-15 -9.881131366403583765e-16 2.000000000000000000e+01 7.902861304180980701e-15 9.143364784277670304e-15 2.400000000000000000e+01 -5.146556327016378590e-15 2.836249678072084874e-14 2.000000000000000000e+01 -1.294513040744781932e-14 -1.126331050033175655e-14 -2.461599591753734210e-16 -1.162007907495774964e-15 -9.881131366403583765e-16 1.997479999999999833e+01 -1.025649999999999951e+00 -2.819380000000000219e+00 2.400000000000000000e+01 5.496817017508777846e-15 3.028531982421807995e-14 2.000000000000000000e+01 -1.500588545744490694e-15 -6.484447920350456452e-15 -2.461599591753734210e-16 -1.162007907495774964e-15 -9.881131366403583765e-16 1.978150000000000119e+01 -3.009479999999999933e+00 -8.305149999999999366e+00 2.400000000000000000e+01 7.075734324506370596e-15 2.279192133991638187e-14 2.000000000000000000e+01 5.385069586969073963e-15 -4.373933853847138316e-16 1.134406181606155783e+01 -1.473753560684689212e+01 -3.901576325031629722e+01 -3.472337495425041709e+01 1.887150310196081904e+01 -8.683599823358601100e+01 6.604310566661233395e+00 -2.604437259932283411e+01 -4.974442396145371958e+01 -3.018017625335551202e+01 -6.551762817136124184e+00 -1.352881450458803414e+01 -2.818400000000000105e+01 1.072940000000000005e+01 -1.915919999999999845e+01 -2.790915302999889970e-16 -2.313697359184824459e-15 1.000000000000000000e+01 8.626703135852870425e-15 -3.290765340721250474e-15 1.000000000000000000e+01 2.281802018194806748e-15 1.008587934662962396e-15 -5.971750244874392846e-16 -1.998179999999999978e+01 8.718970000000000331e-01 -2.396399999999999864e+00 -2.400000000000000000e+01 -2.350296686299597810e-16 1.899950552625737267e-14 -2.000000000000000000e+01 -1.640229023035777967e-15 1.113163979016214919e-14 2.281802018194806748e-15 1.008587934662962396e-15 -5.971750244874392846e-16 -2.000000000000000000e+01 -3.144705389440893075e-15 1.618154465568789992e-14 -2.400000000000000000e+01 -3.331517245183954721e-16 1.191386628594245246e-14 -2.000000000000000000e+01 -7.265815033594576363e-16 7.741238291785444521e-15 2.281802018194806748e-15 1.008587934662962396e-15 -5.971750244874392846e-16 -1.997479999999999833e+01 -1.025649999999999951e+00 2.819380000000000219e+00 -2.400000000000000000e+01 -3.715873959459372567e-15 1.418853692919747027e-14 -2.000000000000000000e+01 -3.559007876267539543e-16 9.684635952839911355e-15 2.281802018194806748e-15 1.008587934662962396e-15 -5.971750244874392846e-16 -1.978150000000000119e+01 -3.009479999999999933e+00 8.305149999999999366e+00 -2.400000000000000000e+01 -8.492786864941913085e-16 1.819951252831772110e-14 -2.000000000000000000e+01 -1.789899408216870902e-15 1.335886637422766804e-14
